<svg width="27" height="27" viewBox="0 0 27 27" fill="none" xmlns="http://www.w3.org/2000/svg">
<path d="M17.1537 20.8417L16.8743 21.984C16.0359 22.3149 15.3663 22.5668 14.8676 22.7399C14.3684 22.9136 13.7884 23 13.1275 23C12.1126 23 11.3231 22.7514 10.7601 22.2576C10.1971 21.7618 9.91551 21.1335 9.91551 20.3713C9.91551 20.0763 9.93594 19.7728 9.97843 19.4636C10.0213 19.154 10.0894 18.8054 10.1826 18.4157L11.2303 14.7074C11.3235 14.3523 11.4027 14.0159 11.4662 13.6977C11.5305 13.3815 11.5615 13.0906 11.5615 12.8287C11.5615 12.3552 11.4635 12.0239 11.2683 11.8377C11.0731 11.652 10.7006 11.5577 10.1476 11.5577C9.87679 11.5577 9.59842 11.6011 9.31467 11.6849C9.02966 11.7692 8.78607 11.8506 8.58154 11.9262L8.86171 10.783C9.54805 10.5035 10.2041 10.2642 10.8316 10.0656C11.4592 9.86647 12.0522 9.76681 12.613 9.76681C13.6209 9.76681 14.3987 10.0104 14.9449 10.4976C15.491 10.9852 15.764 11.6172 15.764 12.396C15.764 12.5572 15.7461 12.8411 15.7076 13.2469C15.6699 13.6536 15.5998 14.0263 15.4977 14.3652L14.4544 18.0587C14.3689 18.3553 14.292 18.6945 14.2252 19.0761C14.1562 19.4552 14.1232 19.7448 14.1232 19.9392C14.1232 20.4296 14.2325 20.7644 14.4517 20.9424C14.6726 21.1204 15.0529 21.209 15.5932 21.209C15.8468 21.209 16.1354 21.164 16.4561 21.0756C16.7759 20.9872 17.0091 20.9096 17.1537 20.8417ZM17.4183 5.33561C17.4183 5.97911 17.1758 6.52868 16.6884 6.98057C16.2023 7.43407 15.6165 7.661 14.9312 7.661C14.2438 7.661 13.6566 7.43407 13.1649 6.98057C12.6741 6.52851 12.4282 5.97911 12.4282 5.33561C12.4282 4.69336 12.6741 4.14289 13.1649 3.68527C13.6557 3.22836 14.244 3 14.9312 3C15.6163 3 16.2023 3.2289 16.6884 3.68527C17.1761 4.14289 17.4183 4.69354 17.4183 5.33561Z" fill="#7F66C4"/>
<path d="M26 13.5C26 20.4036 20.4036 26 13.5 26C6.59644 26 1 20.4036 1 13.5C1 6.59644 6.59644 1 13.5 1C20.4036 1 26 6.59644 26 13.5Z" stroke="#7F66C4" stroke-width="2"/>
</svg>
