<svg width="40" height="40" viewBox="0 0 40 40" fill="none" xmlns="http://www.w3.org/2000/svg">
<path d="M16.6694 2.41455H23.3546V3.53943H25.7689V2.25708C25.7692 1.01257 24.7572 0 23.5133 0H16.5107C15.2668 0 14.2549 1.01257 14.2549 2.25708V3.53943H16.6694V2.41455Z" fill="black"/>
<path d="M31.3444 13.1055H8.67961C8.05858 13.1055 7.56969 13.6353 7.61974 14.2545L9.51458 37.6846C9.62017 38.9926 10.7112 40 12.0219 40H28.0018C29.3126 40 30.4036 38.9926 30.5091 37.6843L32.404 14.2545C32.4543 13.6353 31.9654 13.1055 31.3444 13.1055ZM14.1676 37.5009C14.1423 37.5024 14.1169 37.5034 14.0919 37.5034C13.459 37.5034 12.9277 37.0105 12.8883 36.3702L11.7009 17.1353C11.66 16.4697 12.1662 15.8969 12.8315 15.856C13.4947 15.8157 14.0699 16.3208 14.1108 16.9867L15.298 36.2216C15.3392 36.8872 14.8329 37.4597 14.1676 37.5009ZM21.2327 36.2961C21.2327 36.9626 20.6922 37.5031 20.0254 37.5031C19.3586 37.5031 18.8182 36.9626 18.8182 36.2961V17.0609C18.8182 16.394 19.3586 15.8536 20.0254 15.8536C20.6919 15.8536 21.2327 16.394 21.2327 17.0609V36.2961ZM28.3232 17.132L27.1894 36.3669C27.1519 37.0084 26.6197 37.5031 25.9855 37.5031C25.9617 37.5031 25.9376 37.5024 25.9135 37.5012C25.2479 37.4619 24.7401 36.8906 24.7795 36.225L25.9129 16.9897C25.952 16.3242 26.5214 15.8163 27.1888 15.8557C27.8544 15.8948 28.3622 16.4664 28.3232 17.132Z" fill="black"/>
<path d="M35.5194 9.37988L34.7265 7.00317C34.5175 6.37665 33.9309 5.95398 33.2702 5.95398H6.7538C6.0934 5.95398 5.50655 6.37665 5.29781 7.00317L4.50496 9.37988C4.35207 9.83826 4.55105 10.3058 4.92244 10.5389C5.07381 10.6339 5.25295 10.6909 5.44979 10.6909H34.5745C34.7714 10.6909 34.9508 10.6339 35.1019 10.5386C35.4733 10.3055 35.6723 9.83795 35.5194 9.37988Z" fill="black"/>
</svg>
