<svg width="22" height="22" viewBox="0 0 22 22" fill="none" xmlns="http://www.w3.org/2000/svg">
<path d="M21.7502 0.999977C21.7502 0.585759 21.4144 0.249968 21.0002 0.249968L14.2503 0.249968C13.836 0.249968 13.5003 0.585758 13.5003 0.999977C13.5003 1.4142 13.836 1.74999 14.2503 1.74999H20.2502V7.75006C20.2502 8.16428 20.586 8.50007 21.0002 8.50007C21.4144 8.50007 21.7502 8.16428 21.7502 7.75006L21.7502 0.999977ZM12.504 10.5571L21.5305 1.53031L20.4698 0.469641L11.4433 9.4964L12.504 10.5571Z" fill="#7F66C4"/>
<path d="M0.249837 21C0.249837 21.4142 0.585619 21.75 0.999828 21.75L7.74975 21.75C8.16395 21.75 8.49974 21.4142 8.49974 21C8.49974 20.5857 8.16395 20.25 7.74975 20.25H1.74982V14.2499C1.74982 13.8357 1.41404 13.4999 0.999828 13.4999C0.585619 13.4999 0.249837 13.8357 0.249837 14.2499L0.249837 21ZM9.49604 11.4429L0.469504 20.4696L1.53015 21.5303L10.5567 12.5035L9.49604 11.4429Z" fill="#7F66C4"/>
</svg>
