<svg width="27" height="27" viewBox="0 0 27 27" fill="none" xmlns="http://www.w3.org/2000/svg">
<path d="M12.2775 19.2446H6.49554V15.8191C5.54173 14.9397 5 13.7103 5 12.4039C5 9.84082 7.08527 7.75574 9.64813 7.75574C11.7406 7.75574 13.585 9.16516 14.1332 11.1834L14.1503 11.2456L14.1849 12.0077L15.5877 13.9748L14.3546 14.8705V15.5555C14.3546 16.3804 13.6834 17.0518 12.8579 17.0518H12.2777L12.2775 19.2446ZM7.6618 18.0783H11.1112V15.8859H12.8577C13.04 15.8859 13.1881 15.7376 13.1881 15.5557V14.2767L13.9668 13.7111L13.035 12.4048L12.9908 11.4298C12.5605 9.95025 11.1946 8.92239 9.64794 8.92239C7.72808 8.92239 6.16607 10.4844 6.16607 12.4043C6.16607 13.4539 6.63296 14.4371 7.4472 15.1016L7.6616 15.2766L7.6618 18.0783Z" fill="#7F66C5"/>
<path d="M16.8863 16.0742L16.0617 15.2496C16.5877 14.7234 16.5877 13.8674 16.0615 13.341L16.8865 12.5165C17.8671 13.4973 17.8671 15.0935 16.8863 16.0742Z" fill="#7F66C5"/>
<path d="M18.4608 17.316L17.6362 16.4915C18.847 15.2807 18.847 13.3103 17.6362 12.0993L18.4608 11.2748C20.126 12.9404 20.126 15.6506 18.4608 17.316Z" fill="#7F66C5"/>
<path d="M20.2693 18.4803L19.4443 17.6557C21.2969 15.8027 21.2969 12.7879 19.4447 10.9351L20.2693 10.1106C22.5769 12.4177 22.5769 16.1724 20.2693 18.4803Z" fill="#7F66C5"/>
<path d="M26 13.5C26 20.4036 20.4036 26 13.5 26C6.59644 26 1 20.4036 1 13.5C1 6.59644 6.59644 1 13.5 1C20.4036 1 26 6.59644 26 13.5Z" stroke="#7F66C4" stroke-width="2"/>
</svg>
