<svg width="27" height="27" viewBox="0 0 27 27" fill="none" xmlns="http://www.w3.org/2000/svg">
<path d="M20.4998 6.99997C20.4998 6.72382 20.2759 6.49996 19.9998 6.49996L15.4999 6.49996C15.2237 6.49996 14.9999 6.72382 14.9999 6.99997C14.9999 7.27612 15.2237 7.49999 15.4999 7.49999L19.4998 7.49999L19.4998 11.5001C19.4998 11.7762 19.7236 12.0001 19.9998 12.0001C20.2759 12.0001 20.4998 11.7762 20.4998 11.5001L20.4998 6.99997ZM14.9375 12.7696L20.3533 7.35354L19.6462 6.64641L14.2304 12.0625L14.9375 12.7696Z" fill="#7F66C4"/>
<path d="M7.50024 19C7.50024 19.2762 7.72409 19.5 8.00022 19.5L12.5001 19.5C12.7763 19.5 13.0001 19.2762 13.0001 19C13.0001 18.7239 12.7763 18.5 12.5001 18.5L8.50021 18.5L8.50021 14.4999C8.50021 14.2238 8.27636 13.9999 8.00023 13.9999C7.72409 13.9999 7.50024 14.2238 7.50024 14.4999L7.50024 19ZM13.0625 13.2304L7.64668 18.6465L8.35377 19.3536L13.7696 13.9375L13.0625 13.2304Z" fill="#7F66C4"/>
<path d="M26 13.5C26 20.4036 20.4036 26 13.5 26C6.59644 26 1 20.4036 1 13.5C1 6.59644 6.59644 1 13.5 1C20.4036 1 26 6.59644 26 13.5Z" stroke="#7F66C4" stroke-width="2"/>
</svg>
