<svg width="4236" height="4255" viewBox="0 0 4236 4255" fill="none" xmlns="http://www.w3.org/2000/svg">
<g filter="url(#filter0_d)">
<path d="M4 1947.13L1872.25 248.154L4231.5 2571.07L2326.02 4247L4 1947.13Z" fill="white"/>
</g>
<line x1="460.081" y1="1995.36" x2="744.654" y2="1738.32" stroke="black" stroke-width="15" stroke-linecap="round"/>
<line x1="460.081" y1="1995.36" x2="744.654" y2="1738.32" stroke="black" stroke-width="15" stroke-linecap="round"/>
<line x1="807.273" y1="1681.93" x2="1040.89" y2="1470.91" stroke="black" stroke-width="15" stroke-linecap="round"/>
<line x1="710.009" y1="2236.18" x2="994.582" y2="1979.14" stroke="black" stroke-width="15" stroke-linecap="round"/>
<line x1="710.009" y1="2236.18" x2="994.582" y2="1979.14" stroke="black" stroke-width="15" stroke-linecap="round"/>
<line x1="1057.2" y1="1922.75" x2="1290.82" y2="1711.73" stroke="black" stroke-width="15" stroke-linecap="round"/>
<line x1="1615.78" y1="963.744" x2="1900.35" y2="706.703" stroke="black" stroke-width="15" stroke-linecap="round"/>
<line x1="1099.94" y1="1424.36" x2="1290.9" y2="1250.9" stroke="black" stroke-width="15" stroke-linecap="round"/>
<line x1="1333.94" y1="1215.51" x2="1567.56" y2="1004.49" stroke="black" stroke-width="15" stroke-linecap="round"/>
<line x1="816.361" y1="1909.17" x2="1068.31" y2="1681.6" stroke="black" stroke-width="15" stroke-linecap="round"/>
<line x1="575.51" y1="2118.95" x2="785.745" y2="1936.63" stroke="black" stroke-width="15" stroke-linecap="round"/>
<line x1="1114.15" y1="1637.92" x2="1234.55" y2="1529.16" stroke="black" stroke-width="15" stroke-linecap="round"/>
<line x1="2000.42" y1="1536.27" x2="2284.99" y2="1279.23" stroke="black" stroke-width="15" stroke-linecap="round"/>
<line x1="2000.42" y1="1536.27" x2="2284.99" y2="1279.23" stroke="black" stroke-width="15" stroke-linecap="round"/>
<line x1="1442.07" y1="2271.94" x2="1675.69" y2="2060.92" stroke="black" stroke-width="15" stroke-linecap="round"/>
<line x1="1750.48" y1="1996.02" x2="1943.2" y2="1821.64" stroke="black" stroke-width="15" stroke-linecap="round"/>
<line x1="2332.33" y1="1237.36" x2="2382.82" y2="1195.48" stroke="black" stroke-width="15" stroke-linecap="round"/>
<line x1="1881.66" y1="940.2" x2="2016.53" y2="818.372" stroke="black" stroke-width="15" stroke-linecap="round"/>
<line x1="1293.14" y1="1476.04" x2="1675.67" y2="1128.6" stroke="black" stroke-width="15" stroke-linecap="round"/>
<line x1="1730.99" y1="1078.32" x2="1838.24" y2="981.446" stroke="black" stroke-width="15" stroke-linecap="round"/>
<line x1="1369.36" y1="1649.47" x2="1560.33" y2="1476.01" stroke="black" stroke-width="15" stroke-linecap="round"/>
<line x1="1603.37" y1="1440.62" x2="1836.99" y2="1229.6" stroke="black" stroke-width="15" stroke-linecap="round"/>
<line x1="1893.9" y1="1185.34" x2="2148.81" y2="947.93" stroke="black" stroke-width="15" stroke-linecap="round"/>
<line x1="1839.12" y1="1477.28" x2="1973.99" y2="1355.45" stroke="black" stroke-width="15" stroke-linecap="round"/>
<line x1="1667.18" y1="1633.13" x2="1774.43" y2="1536.25" stroke="black" stroke-width="15" stroke-linecap="round"/>
<line x1="1651.23" y1="1846.53" x2="1884.85" y2="1635.51" stroke="black" stroke-width="15" stroke-linecap="round"/>
<line x1="2019.75" y1="1309.42" x2="2274.66" y2="1072.01" stroke="black" stroke-width="15" stroke-linecap="round"/>
<line x1="835.859" y1="2371.14" x2="1120.43" y2="2114.1" stroke="black" stroke-width="15" stroke-linecap="round"/>
<line x1="1101.74" y1="2347.6" x2="1236.62" y2="2225.77" stroke="black" stroke-width="15" stroke-linecap="round"/>
<line x1="1222.24" y1="2025.53" x2="1604.77" y2="1678.08" stroke="black" stroke-width="15" stroke-linecap="round"/>
<line x1="951.074" y1="2485.72" x2="1058.33" y2="2388.84" stroke="black" stroke-width="15" stroke-linecap="round"/>
<line x1="1113.99" y1="2592.74" x2="1368.89" y2="2355.33" stroke="black" stroke-width="15" stroke-linecap="round"/>
<line x1="1312.51" y1="2146.06" x2="1567.41" y2="1908.65" stroke="black" stroke-width="15" stroke-linecap="round"/>
<path d="M1932.01 1815.53C1741.6 1549.09 1486.83 818.295 1991.02 26.5883" stroke="#929391" stroke-width="15" stroke-linecap="round"/>
<path d="M2084.29 1332.96C2135.9 1370.92 1946.67 1589.62 1853.27 1687.8C1529.17 1071.09 1759.99 285.455 1998.44 26.0919C2048.77 48.5255 1989.9 117.671 1954.18 149.439C2006.03 164.048 1969.45 201.461 1944.67 218.341C2000.84 232.835 1977.8 264.479 1959.26 278.49C2009.48 280.602 1990 336.403 1973.99 364.039C2009.72 374.324 1982.45 397.325 1964.34 407.54C2012.8 440.835 1980.92 461.509 1958.93 467.685C2013 484.396 2002.86 520.199 1991.03 536.012C2019.65 522.704 2017.74 571.151 2013.21 597.038C2036.8 589.919 2052.03 613.834 2010.13 643.606C2058.16 660.696 2020.62 725.846 2009.38 736.597C2029.47 727.842 2043.93 761.616 2040.47 787.114L2054.92 781.862C2087.86 768.438 2072.13 852.57 2060.15 896.314C2083.74 889.195 2082.04 913.204 2078.25 926.099C2109.67 904.5 2096.97 965.956 2086.7 999.384C2108.89 988.411 2105.18 1030.24 2100.56 1052.53C2124.5 1042.37 2107.31 1102.79 2095.72 1134.28C2116.39 1131.13 2101.5 1175.2 2091.47 1197.63C2117.05 1183.97 2102.22 1235.54 2091.61 1263.03C2126.77 1235.71 2101.38 1298.26 2084.29 1332.96Z" fill="#D5D7CA" stroke="#929391" stroke-width="4" stroke-linecap="round"/>
<path d="M1763.25 1455.08C1843.51 1384.1 2113.68 1118.66 2096.32 1055.88" stroke="#929391" stroke-width="2" stroke-linecap="round"/>
<path d="M1730.43 1339.74C1812.38 1267.88 2088.36 999.233 2070.95 936.024" stroke="#929391" stroke-width="2" stroke-linecap="round"/>
<path d="M1714.38 1305.58C1796.33 1233.71 2072.31 965.069 2054.89 901.86" stroke="#929391" stroke-width="2" stroke-linecap="round"/>
<path d="M1695.13 1192.58C1777.08 1120.72 2053.06 852.073 2035.65 788.864" stroke="#929391" stroke-width="2" stroke-linecap="round"/>
<path d="M1716.14 1250.4C1800.98 1168.73 2085.44 862.03 2063.68 785.951" stroke="#929391" stroke-width="2" stroke-linecap="round"/>
<path d="M1697.48 1119.01C1773.73 1049.21 2030.01 787.729 2012.3 724.627" stroke="#929391" stroke-width="2" stroke-linecap="round"/>
<path d="M1693.12 1036.97C1767.95 967.685 2019.3 707.993 2001.52 644.917" stroke="#929391" stroke-width="2" stroke-linecap="round"/>
<path d="M1707.18 835.511C1766.33 771.926 1963.5 531.924 1944.91 469.141" stroke="#929391" stroke-width="2" stroke-linecap="round"/>
<path d="M1709.82 772.739C1768.97 709.154 1872.95 446.207 1959.52 409.291" stroke="#929391" stroke-width="2" stroke-linecap="round"/>
<path d="M1730.56 679.751C1775.84 574.214 1892.51 399.975 1978.8 362.288" stroke="#929391" stroke-width="2" stroke-linecap="round"/>
<path d="M1756.57 581.218C1790.54 479.078 1883.02 312.573 1956.05 279.657" stroke="#929391" stroke-width="2" stroke-linecap="round"/>
<path d="M1774.98 501.805C1805.26 401.008 1889.78 237.392 1958.4 206.081" stroke="#929391" stroke-width="2" stroke-linecap="round"/>
<path d="M1798.06 435.242C1823.16 336.324 1896.56 176.752 1959 147.688" stroke="#929391" stroke-width="2" stroke-linecap="round"/>
<path d="M1648.18 933.308C1730.13 861.439 2006.11 592.796 1988.7 529.588" stroke="#929391" stroke-width="2" stroke-linecap="round"/>
<path d="M1688.75 994.921C1774.26 941.889 1991.46 665.362 2010.87 590.613" stroke="#929391" stroke-width="2" stroke-linecap="round"/>
<path d="M1743.55 1405.88C1823.81 1334.9 2096.76 1072.09 2079.4 1009.31" stroke="#929391" stroke-width="2" stroke-linecap="round"/>
<path d="M1577.86 1415.19C1559.5 1536.76 1742.92 1630.94 1836.93 1662.83C1516.01 1047.88 1804.95 309.114 1989.53 16.6011C1935.23 7.24684 1887.97 52.2973 1871.13 75.9918C1843.22 67.2269 1839.06 89.4642 1840.47 101.679C1811.74 94.6653 1812.53 108.193 1816.52 115.834C1780.2 115.943 1782.89 138.357 1788.78 149.55C1753.27 147.908 1747.7 203.264 1749.34 231.147C1712.67 234.293 1709.14 283.936 1711.96 308.365C1669.56 307.772 1670.44 345.874 1676.18 364.999C1631.92 359.267 1633.2 401.827 1639.38 423.823C1599.67 426.617 1603.55 471.99 1610.46 494.327C1571.45 491.049 1578.72 560.402 1587.23 595.489C1549.16 546.781 1548.77 646.429 1553.34 702.342C1501.36 715.411 1515.9 777.759 1529.66 807.299C1488.77 878.881 1509.69 902.428 1525.26 905.254C1472.93 969.359 1498.67 1008.85 1518.09 1020.58C1485.95 1112.25 1514.13 1114.74 1532.23 1104.52C1486.32 1166.29 1516.69 1183.5 1537.61 1184.38C1513.19 1257.25 1546.79 1291.34 1566.64 1299.27C1530.08 1322.74 1558.89 1386.33 1577.86 1415.19Z" fill="#D5D7CA" stroke="#929391" stroke-width="4" stroke-linecap="round"/>
<path d="M1826.28 1628.52C1906.53 1557.54 2072.66 1395 2080.5 1332.52" stroke="#929391" stroke-width="2" stroke-linecap="round"/>
<path d="M1772.15 1484.57C1852.4 1413.59 2096.29 1195.88 2090.32 1134.42" stroke="#929391" stroke-width="2" stroke-linecap="round"/>
<path d="M1788.78 1540.34C1869.04 1469.36 2078.82 1261.86 2086.66 1199.38" stroke="#929391" stroke-width="2" stroke-linecap="round"/>
<path d="M1807.16 1580.92C1887.42 1509.94 2079.97 1325.07 2087.81 1262.59" stroke="#929391" stroke-width="2" stroke-linecap="round"/>
<path d="M1815.18 1618.01C1740.64 1579.65 1589.38 1485.9 1580.63 1417.81" stroke="#929391" stroke-width="2" stroke-linecap="round"/>
<path d="M1699.82 1125.43C1650.06 1077.65 1546.69 965.55 1531.22 899.452" stroke="#929391" stroke-width="2" stroke-linecap="round"/>
<path d="M1704.84 829.087C1672.97 774.804 1604.18 650.141 1583.99 585.757" stroke="#929391" stroke-width="2" stroke-linecap="round"/>
<path d="M1698.98 933.026C1657.57 882.208 1570.34 764.247 1552.67 698.949" stroke="#929391" stroke-width="2" stroke-linecap="round"/>
<path d="M1701.59 1030.25C1651.84 982.466 1548.46 870.37 1532.99 804.271" stroke="#929391" stroke-width="2" stroke-linecap="round"/>
<path d="M1723.42 1320.47C1664.14 1276.15 1542.32 1170.76 1529.37 1103.74" stroke="#929391" stroke-width="2" stroke-linecap="round"/>
<path d="M1742.68 1393.47C1681.01 1350.01 1554.58 1246.3 1542.26 1179.05" stroke="#929391" stroke-width="2" stroke-linecap="round"/>
<path d="M1779.44 1514.64C1716.58 1471.62 1587.26 1365.32 1575.25 1297.96" stroke="#929391" stroke-width="2" stroke-linecap="round"/>
<path d="M1519.69 1020C1558.94 1070.58 1654.25 1173.26 1704.48 1178.28" stroke="#929391" stroke-width="2" stroke-linecap="round"/>
<path d="M1715.37 737.995C1662.84 701.067 1613.11 552.894 1610.83 477.828" stroke="#929391" stroke-width="2" stroke-linecap="round"/>
<path d="M1644.92 429.079C1646.91 469.566 1668.11 571.914 1728.23 653.328" stroke="#929391" stroke-width="2" stroke-linecap="round"/>
<path d="M1752.65 215.402C1751.2 247.716 1763.81 328.03 1817.34 388.239" stroke="#929391" stroke-width="2" stroke-linecap="round"/>
<path d="M1870.93 70.6115C1864.95 90.4448 1865.44 137.429 1907.61 166.363" stroke="#929391" stroke-width="2" stroke-linecap="round"/>
<path d="M1844.64 98.3429C1839.61 120.776 1842.63 174.704 1887.16 210.154" stroke="#929391" stroke-width="2" stroke-linecap="round"/>
<path d="M1816.61 101.256C1813.28 128.37 1820.84 194.796 1869.63 241.974" stroke="#929391" stroke-width="2" stroke-linecap="round"/>
<path d="M1788 122.564C1786.74 155.397 1799.86 237.1 1853.85 298.613" stroke="#929391" stroke-width="2" stroke-linecap="round"/>
<path d="M1713.22 277C1713.1 312.954 1729.24 402.989 1786.08 472.32" stroke="#929391" stroke-width="2" stroke-linecap="round"/>
<path d="M1678.75 362.247C1679.01 399.241 1696.16 492.054 1753.95 563.991" stroke="#929391" stroke-width="2" stroke-linecap="round"/>
<defs>
<filter id="filter0_d" x="0" y="248.154" width="4235.5" height="4006.85" filterUnits="userSpaceOnUse" color-interpolation-filters="sRGB">
<feFlood flood-opacity="0" result="BackgroundImageFix"/>
<feColorMatrix in="SourceAlpha" type="matrix" values="0 0 0 0 0 0 0 0 0 0 0 0 0 0 0 0 0 0 127 0"/>
<feOffset dy="4"/>
<feGaussianBlur stdDeviation="2"/>
<feColorMatrix type="matrix" values="0 0 0 0 0 0 0 0 0 0 0 0 0 0 0 0 0 0 0.25 0"/>
<feBlend mode="normal" in2="BackgroundImageFix" result="effect1_dropShadow"/>
<feBlend mode="normal" in="SourceGraphic" in2="effect1_dropShadow" result="shape"/>
</filter>
</defs>
</svg>
