<svg width="126" height="125" viewBox="0 0 126 125" fill="none" xmlns="http://www.w3.org/2000/svg">
<path d="M126 62.5C126 121 126 125 63.5 125C-1.00002 125 0.999984 125 0.999984 62.5C3.49998 0 3.99998 4.45959e-09 63.5 0C126 -4.68428e-09 126 0 126 62.5Z" fill="url(#paint0_linear)"/>
<path d="M114.496 27.1759C114.067 26.9049 113.523 26.89 113.079 27.1369C109.425 29.0554 105.324 29.9608 101.203 29.7593C100.866 24.6441 96.6224 20.6653 91.4964 20.6594H41.4144C36.0387 20.6656 31.6824 25.022 31.6763 30.3979V94.3934C31.6824 99.7693 36.0387 104.126 41.4144 104.132H91.4964C96.5748 104.093 100.771 100.157 101.134 95.0915C101.498 90.0258 97.9083 85.5309 92.8875 84.7663V53.0746C95.7895 50.5829 99.49 49.4046 103.338 48.1789L104.331 47.8617C114.012 44.7538 115.102 29.1041 115.146 28.4391C115.177 27.9308 114.928 27.4463 114.496 27.1759ZM91.4964 23.4419C95.0454 23.453 98.0142 26.1399 98.3784 29.6703C97.342 29.616 96.2917 29.5451 95.2428 29.4713C91.3443 29.0596 87.4117 29.0932 83.5208 29.5715C83.486 29.5715 83.4554 29.5799 83.422 29.5868C78.5118 30.3561 73.9918 32.7216 70.5607 36.3175C70.2171 36.6639 69.8902 37.0131 69.5716 37.3539H48.2311C50.1037 35.5239 51.1594 33.0162 51.1594 30.3979C51.1594 27.7796 50.1037 25.2718 48.2311 23.4419H91.4964ZM34.4586 94.3934V30.3979C34.4586 26.5562 37.5728 23.4419 41.4144 23.4419C45.256 23.4419 48.3702 26.5562 48.3702 30.3979C48.3702 34.2396 45.256 37.3539 41.4144 37.3539C40.6461 37.3539 40.0233 37.9768 40.0233 38.7451C40.0233 39.5135 40.6461 40.1363 41.4144 40.1363H67.279C60.1033 49.8887 62.5796 58.7354 64.0709 62.2287C61.5238 66.6166 59.6512 71.3627 58.516 76.3077H44.1968C43.4284 76.3077 42.8056 76.9306 42.8056 77.699C42.8056 78.4673 43.4284 79.0902 44.1968 79.0902H59.6623C59.958 79.0903 60.2459 78.9962 60.4845 78.8217L66.8338 74.1736C67.1893 73.9138 67.4009 73.501 67.4042 73.0607C67.4841 70.8676 67.7165 68.6828 68.0997 66.522C69.8915 67.3675 71.8517 67.7956 73.8327 67.7741C74.8826 67.7727 75.9297 67.6669 76.9587 67.4583C81.0556 66.5894 84.7018 64.2723 87.2283 60.9321C87.2547 60.9057 87.2686 60.8709 87.2936 60.8431C88.1278 59.7704 88.8617 58.6234 89.4861 57.4165C89.6837 57.0312 89.8937 56.6667 90.1121 56.3161V84.655H41.4144C40.6461 84.655 40.0233 85.2779 40.0233 86.0462C40.0233 86.8145 40.6461 87.4374 41.4144 87.4374C45.256 87.4374 48.3702 90.5517 48.3702 94.3934C48.3702 98.2352 45.256 101.349 41.4144 101.349C37.5728 101.349 34.4586 98.2352 34.4586 94.3934ZM65.4329 65.5384C65.0199 67.7819 64.7573 70.0504 64.6469 72.3289L61.9035 74.3364C62.7973 71.2981 63.9791 68.3521 65.4329 65.5384ZM98.4522 94.3934C98.4476 98.2333 95.336 101.345 91.4964 101.349H48.2311C50.1037 99.5195 51.1594 97.0118 51.1594 94.3934C51.1594 91.7751 50.1037 89.2674 48.2311 87.4374H91.4964C95.336 87.442 98.4476 90.5536 98.4522 94.3934ZM103.478 45.2115L102.494 45.5273C99.6562 46.3334 96.9066 47.4212 94.2856 48.7744C93.1042 48.7292 91.9744 48.2787 91.086 47.4986C90.7341 47.1472 90.2215 47.0102 89.7412 47.1393C89.2609 47.2683 88.886 47.6438 88.7576 48.1243C88.6293 48.6047 88.767 49.1172 89.1189 49.4686C89.7269 50.0623 90.4427 50.5345 91.2279 50.8598C89.4744 52.3197 88.0365 54.1213 87.0015 56.1547C86.569 56.9936 86.0767 57.8003 85.5283 58.5685C83.0002 58.5782 80.5006 58.036 78.2038 56.9797C77.5161 56.6362 76.6803 56.9153 76.3368 57.603C75.9934 58.2906 76.2724 59.1265 76.9601 59.47C78.9254 60.411 81.0413 60.9978 83.2106 61.2034C81.3012 62.9793 78.9449 64.2027 76.3939 64.7426C73.7772 65.3487 71.029 64.9724 68.6715 63.6853C69.1617 61.5401 69.8481 59.4444 70.7221 57.4249C81.4577 44.1708 89.2538 41.0949 102.626 39.2404C103.119 39.1729 103.538 38.8472 103.726 38.3862C103.913 37.9252 103.84 37.3992 103.534 37.0067C103.228 36.6142 102.736 36.4151 102.243 36.4844C88.369 38.4099 79.7744 41.7891 68.474 55.7902C68.4601 55.8055 68.4489 55.8208 68.4364 55.8375C67.528 56.9644 66.7114 58.0954 65.9532 59.2209C64.3448 53.5183 65.4494 47.3928 68.9484 42.6113C69.0106 43.2989 69.1231 43.981 69.285 44.6522C69.474 45.3975 70.2314 45.8485 70.9767 45.6594C71.7219 45.4704 72.1729 44.713 71.9839 43.9677C71.6047 42.3627 71.5372 40.6998 71.7849 39.0693C72.0298 38.8064 72.2774 38.5434 72.539 38.2791C74.9082 35.8106 77.8655 33.9844 81.1336 32.9716C80.6257 34.3768 80.3663 35.8597 80.367 37.3539C80.367 38.1223 80.9899 38.7451 81.7582 38.7451C82.5265 38.7451 83.1494 38.1223 83.1494 37.3539C83.1297 35.5479 83.6175 33.7726 84.5572 32.2301C86.8762 31.9529 89.2156 31.8877 91.5464 32.0353C91.0367 32.6201 90.5995 33.2642 90.2443 33.9538C89.9032 34.6423 90.1847 35.4769 90.8731 35.818C91.0666 35.9146 91.2801 35.9641 91.4964 35.9627C92.0271 35.9648 92.5128 35.6648 92.7484 35.1892C93.3656 34.0221 94.254 33.0202 95.3388 32.2677C100.844 32.6461 106.504 32.9925 112.073 30.7067C111.4 34.9291 109.346 43.3361 103.478 45.2115Z" fill="white"/>
<defs>
<linearGradient id="paint0_linear" x1="20.2969" y1="11.9531" x2="105.297" y2="107.109" gradientUnits="userSpaceOnUse">
<stop stop-color="#7F66C4"/>
<stop offset="1" stop-color="#50D5FF"/>
</linearGradient>
</defs>
</svg>
